<?xml version="1.0" encoding="utf-8"?>
<!-- Generator: Adobe Illustrator 23.0.2, SVG Export Plug-In . SVG Version: 6.00 Build 0)  -->
<svg version="1.1" id="Layer_1" xmlns="http://www.w3.org/2000/svg" xmlns:xlink="http://www.w3.org/1999/xlink" x="0px" y="0px"
	 width="383px" height="291.3px" viewBox="0 0 383 291.3" enable-background="new 0 0 383 291.3" xml:space="preserve">
<g>
	<g>
		<g>
			<g>
				<path fill="#DEF6FF" d="M346.7,159.3c0-85.7-69.5-155.2-155.2-155.2S36.2,73.6,36.2,159.3c0,22.8,5,44.5,13.8,64h282.8
					C341.7,203.8,346.7,182.2,346.7,159.3z"/>
			</g>
		</g>
		<g>
			<g>
				<path fill="#0050BF" d="M340.8,225.3H38.2c-1.1,0-1.9-0.9-1.9-1.9s0.9-1.9,1.9-1.9h302.7c1.1,0,1.9,0.9,1.9,1.9
					S341.9,225.3,340.8,225.3z"/>
			</g>
			<g>
				<path fill="#0050BF" d="M30.4,225.3h-9.7c-1.1,0-1.9-0.9-1.9-1.9s0.9-1.9,1.9-1.9h9.7c1.1,0,1.9,0.9,1.9,1.9
					S31.5,225.3,30.4,225.3z"/>
			</g>
			<g>
				<path fill="#0050BF" d="M358.3,225.3h-9.7c-1.1,0-1.9-0.9-1.9-1.9s0.9-1.9,1.9-1.9h9.7c1.1,0,1.9,0.9,1.9,1.9
					S359.4,225.3,358.3,225.3z"/>
			</g>
		</g>
	</g>
	<g>
		<g>
			<ellipse fill="#DEF6FF" cx="192.3" cy="281.6" rx="61.1" ry="6.1"/>
		</g>
		<g>
			<path fill="#8FEFFF" d="M268.1,227.8l0-78.2c0-5.4-4.4-9.8-9.8-9.8h-132c-5.4,0-9.8,4.4-9.8,9.8l0,78.2H268.1z"/>
		</g>
		<g>
			<path fill="#FFFFFF" d="M136.1,227.8l88-88h-97.8c-5.4,0-9.8,4.4-9.8,9.8l0,78.2H136.1z"/>
		</g>
		<g>
			<path fill="#FFFFFF" d="M268,227.8v19.6c0,5.4-4.4,9.8-9.8,9.8h-132c-5.4,0-9.8-4.4-9.8-9.8v-19.6H268z"/>
			<path fill="#0050BF" d="M258.3,259.1h-132c-6.5,0-11.7-5.3-11.7-11.7v-19.6c0-1.1,0.9-1.9,1.9-1.9H268c1.1,0,1.9,0.9,1.9,1.9
				v19.6C270,253.9,264.7,259.1,258.3,259.1z M118.4,229.8v17.6c0,4.3,3.5,7.8,7.8,7.8h132c4.3,0,7.8-3.5,7.8-7.8v-17.6H118.4z"/>
		</g>
		<g>
			<path fill="#8FEFFF" d="M197.2,242.5c0,2.7-2.2,4.9-4.9,4.9c-2.7,0-4.9-2.2-4.9-4.9c0-2.7,2.2-4.9,4.9-4.9
				C195,237.6,197.2,239.8,197.2,242.5z"/>
			<path fill="#0050BF" d="M192.3,249.3c-3.8,0-6.8-3.1-6.8-6.8c0-3.8,3.1-6.8,6.8-6.8s6.8,3.1,6.8,6.8
				C199.1,246.3,196,249.3,192.3,249.3z M192.3,239.6c-1.6,0-2.9,1.3-2.9,2.9c0,1.6,1.3,3,2.9,3c1.6,0,3-1.3,3-3
				C195.2,240.9,193.9,239.6,192.3,239.6z"/>
		</g>
		<g>
			<polygon fill="#FFFFFF" points="216.7,276.7 167.8,276.7 170.3,257.2 214.3,257.2 			"/>
			<path fill="#0050BF" d="M216.7,278.7h-48.9c-0.6,0-1.1-0.2-1.5-0.7s-0.5-1-0.5-1.5l2.4-19.6c0.1-1,0.9-1.7,1.9-1.7h44
				c1,0,1.8,0.7,1.9,1.7l2.4,19.6c0.1,0.5-0.1,1.1-0.5,1.5S217.3,278.7,216.7,278.7z M170,274.8h44.5l-2-15.7H172L170,274.8z"/>
		</g>
		<g>
			<path fill="#0050BF" d="M231.4,278.7h-78.2c-1.1,0-1.9-0.9-1.9-1.9c0-1.1,0.9-1.9,1.9-1.9h78.2c1.1,0,1.9,0.9,1.9,1.9
				C233.3,277.8,232.5,278.7,231.4,278.7z"/>
		</g>
		<g>
			<path fill="#0050BF" d="M268.1,229.8H116.5c-1.1,0-1.9-0.9-1.9-1.9l0-78.2c0-6.5,5.3-11.7,11.7-11.7h132
				c6.5,0,11.7,5.3,11.7,11.7l0,78.2c0,0.5-0.2,1-0.6,1.4S268.6,229.8,268.1,229.8z M118.5,225.9h147.7l0-76.3
				c0-4.3-3.5-7.8-7.8-7.8h-132c-4.3,0-7.8,3.5-7.8,7.8L118.5,225.9z"/>
		</g>
		<g>
			<path fill="#FFFFFF" d="M221.6,183.8c0,16.2-13.1,29.3-29.3,29.3c-16.2,0-29.3-13.1-29.3-29.3s13.1-29.3,29.3-29.3
				C208.5,154.5,221.6,167.6,221.6,183.8z"/>
		</g>
		<g>
			<g>
				<path fill="#8FEFFF" d="M187.4,201c-1.9,0-3.8-0.7-5.2-2.1l-9.8-9.8c-2.9-2.9-2.9-7.5,0-10.4c2.9-2.9,7.5-2.9,10.4,0l4.6,4.6
					l11.9-11.9c2.9-2.9,7.5-2.9,10.4,0c2.9,2.9,2.9,7.5,0,10.4l-17.1,17.1C191.1,200.2,189.3,201,187.4,201z"/>
			</g>
		</g>
		<g>
			<g>
				<path fill="#0050BF" d="M192.3,215.1c-17.2,0-31.3-14-31.3-31.3s14-31.3,31.3-31.3s31.3,14,31.3,31.3S209.5,215.1,192.3,215.1z
					 M192.3,156.4c-15.1,0-27.4,12.3-27.4,27.4s12.3,27.4,27.4,27.4c15.1,0,27.4-12.3,27.4-27.4S207.4,156.4,192.3,156.4z"/>
			</g>
			<g>
				<g>
					<path fill="#0050BF" d="M187.4,202.9c-2.5,0-4.8-1-6.6-2.7l-9.8-9.8c-3.6-3.6-3.6-9.5,0-13.1c3.6-3.6,9.5-3.6,13.1,0l3.2,3.2
						l10.6-10.6c3.5-3.5,9.6-3.5,13.1,0c3.6,3.6,3.6,9.5,0,13.1l-17.1,17.1C192.2,201.9,189.9,202.9,187.4,202.9z M177.6,178.5
						c-1.4,0-2.8,0.5-3.8,1.6c-2.1,2.1-2.1,5.5,0,7.6l9.8,9.8c2,2,5.6,2,7.6,0l17.1-17.1c2.1-2.1,2.1-5.5,0-7.6c-2-2-5.6-2-7.6,0
						l-11.9,11.9c-0.8,0.8-2,0.8-2.7,0l-4.6-4.6C180.4,179,179,178.5,177.6,178.5z"/>
				</g>
			</g>
		</g>
		<g>
			<g>
				<path fill="#FFFFFF" d="M111.7,116.6c0.6,2.2-0.6,4.4-2.8,5l-86.2,24.4c-2.2,0.6-4.4-0.6-5-2.8L3.8,94.6c-0.6-2.2,0.6-4.4,2.8-5
					l86.2-24.4c2.2-0.6,4.4,0.6,5,2.8L111.7,116.6z"/>
			</g>
			<g>
				<path fill="#FFFFFF" d="M98,104.4l-5.3-18.8C87.5,87,82.1,84,80.6,78.8l-56.4,16c1.5,5.2-1.5,10.6-6.7,12.1l5.3,18.8
					c5.2-1.5,10.6,1.5,12.1,6.7l56.4-16C89.8,111.2,92.9,105.8,98,104.4z"/>
			</g>
			<g>
				<path fill="#8FEFFF" d="M67.2,103c1.5,5.2-1.5,10.6-6.7,12.1c-5.2,1.5-10.6-1.5-12.1-6.7c-1.5-5.2,1.5-10.6,6.7-12.1
					C60.3,94.7,65.7,97.8,67.2,103z"/>
			</g>
			<g>
				<path fill="#0050BF" d="M57.8,117.3c-5.1,0-9.8-3.4-11.3-8.5c-1.8-6.2,1.9-12.7,8.1-14.5c3-0.9,6.2-0.5,8.9,1
					c2.7,1.5,4.7,4,5.6,7v0c1.8,6.2-1.9,12.7-8.1,14.5C59.9,117.2,58.8,117.3,57.8,117.3z M57.8,97.8c-0.7,0-1.4,0.1-2.1,0.3
					c-4.2,1.2-6.6,5.5-5.4,9.7c1.2,4.2,5.5,6.6,9.7,5.4c4.2-1.2,6.6-5.5,5.4-9.7c-0.6-2-1.9-3.7-3.7-4.7
					C60.4,98.1,59.1,97.8,57.8,97.8z"/>
			</g>
			<g>
				<path fill="#0050BF" d="M34.9,134.4c-0.8,0-1.6-0.6-1.9-1.4c-1.2-4.2-5.5-6.6-9.7-5.4c-0.5,0.1-1,0.1-1.5-0.2
					c-0.4-0.3-0.8-0.7-0.9-1.2l-5.3-18.8c-0.3-1,0.3-2.1,1.3-2.4c4.2-1.2,6.6-5.5,5.4-9.7c-0.3-1,0.3-2.1,1.3-2.4l56.4-16
					c1-0.3,2.1,0.3,2.4,1.3c1.2,4.2,5.5,6.6,9.7,5.4c0.5-0.1,1-0.1,1.5,0.2c0.5,0.3,0.8,0.7,0.9,1.2l5.3,18.8c0.3,1-0.3,2.1-1.3,2.4
					c-4.2,1.2-6.6,5.5-5.4,9.7c0.1,0.5,0.1,1-0.2,1.5c-0.3,0.4-0.7,0.8-1.2,0.9l-56.4,16C35.2,134.3,35,134.4,34.9,134.4z
					 M25.5,123.4c4.5,0,8.6,2.6,10.6,6.7l53-15c-0.5-4.9,2.1-9.7,6.6-11.9l-4.4-15.4c-5,0.5-9.7-2.1-11.9-6.6l-53,15
					c0.5,4.9-2.1,9.7-6.6,11.9l4.4,15.4C24.6,123.4,25,123.4,25.5,123.4z"/>
			</g>
			<g>
				<path fill="#0050BF" d="M21.5,148.2c-2.6,0-5-1.7-5.8-4.4L2,95.2c-0.9-3.2,1-6.5,4.1-7.4l86.2-24.4c3.2-0.9,6.5,1,7.4,4.1
					l13.8,48.6c0.4,1.5,0.2,3.2-0.5,4.6c-0.8,1.4-2.1,2.4-3.6,2.8l-86.2,24.4C22.6,148.1,22.1,148.2,21.5,148.2z M94,67
					c-0.2,0-0.4,0-0.6,0.1L7.2,91.5c-0.5,0.2-1,0.5-1.3,1c-0.3,0.5-0.3,1.1-0.2,1.6l13.8,48.6c0.2,0.5,0.5,1,1,1.3
					c0.5,0.3,1.1,0.4,1.6,0.2l86.2-24.4c0.5-0.2,1-0.5,1.3-1c0.3-0.5,0.3-1.1,0.2-1.6l0,0L96,68.5C95.8,67.6,94.9,67,94,67z"/>
			</g>
		</g>
		<g>
			<g>
				<path fill="#FFFFFF" d="M358,144.9l-68.9-19.7c-4.3-1.2-6.8-5.8-5.6-10.1l11.7-40.7c1.2-4.3,5.8-6.8,10.1-5.6l68.9,19.7
					c4.3,1.2,6.8,5.8,5.6,10.1l-11.7,40.7C366.8,143.7,362.3,146.2,358,144.9z"/>
			</g>
			<g>
				
					<rect x="330.8" y="48.8" transform="matrix(0.2754 -0.9613 0.9613 0.2754 154.0513 389.8879)" fill="#8FEFFF" width="9.8" height="88"/>
			</g>
			<g>
				<path fill="#0050BF" d="M316.8,124.9c-0.2,0-0.4,0-0.5-0.1l-23.5-6.7c-1-0.3-1.6-1.4-1.3-2.4c0.3-1,1.3-1.6,2.4-1.3l23.5,6.7
					c1,0.3,1.6,1.4,1.3,2.4C318.4,124.4,317.7,124.9,316.8,124.9z"/>
			</g>
			<g>
				
					<rect x="296" y="106.7" transform="matrix(0.9613 0.2754 -0.2754 0.9613 43.4861 -86.6289)" fill="#FFFFFF" width="68.4" height="9.8"/>
			</g>
			<g>
				<path fill="#0050BF" d="M360.3,147.2c-0.9,0-1.9-0.1-2.8-0.4l-68.9-19.7c-5.4-1.5-8.5-7.1-6.9-12.5l11.7-40.7
					c1.5-5.3,7.1-8.5,12.5-6.9l68.9,19.7c5.3,1.5,8.4,7.1,6.9,12.5l-11.7,40.7c-0.7,2.6-2.4,4.7-4.8,6
					C363.6,146.8,361.9,147.2,360.3,147.2z M303,70.4c-2.7,0-5.2,1.8-6,4.5l-11.7,40.7c-0.9,3.3,1,6.7,4.3,7.7l68.9,19.7l0,0
					c1.6,0.5,3.3,0.3,4.7-0.5c1.5-0.8,2.5-2.1,3-3.7l11.7-40.7c0.9-3.3-1-6.7-4.3-7.7l-68.9-19.7C304.1,70.5,303.6,70.4,303,70.4z"
					/>
			</g>
			<g>
				<path fill="#0050BF" d="M376.6,111.5c-0.2,0-0.4,0-0.5-0.1l-84.6-24.2c-1-0.3-1.6-1.4-1.3-2.4l2.7-9.4c0.1-0.5,0.5-0.9,0.9-1.2
					c0.4-0.2,1-0.3,1.5-0.2l84.6,24.2c1,0.3,1.6,1.4,1.3,2.4l-2.7,9.4c-0.1,0.5-0.5,0.9-0.9,1.2
					C377.3,111.4,376.9,111.5,376.6,111.5z M294.4,84l80.9,23.2l1.6-5.7L296,78.3L294.4,84z"/>
			</g>
			<g>
				<path fill="#0050BF" d="M361.8,127.6c-0.2,0-0.4,0-0.5-0.1l-65.8-18.8c-0.5-0.1-0.9-0.5-1.2-0.9c-0.3-0.4-0.3-1-0.2-1.5l2.7-9.4
					c0.3-1,1.3-1.6,2.4-1.3l65.8,18.9c0.5,0.1,0.9,0.5,1.2,0.9c0.3,0.4,0.3,1,0.2,1.5l-2.7,9.4C363.4,127.1,362.7,127.6,361.8,127.6
					z M298.4,105.5l62.1,17.8l1.6-5.7L300,99.8L298.4,105.5z"/>
			</g>
		</g>
		<g>
			<g>
				<path fill="#FFFFFF" d="M160.5,113.5c-5.3,0-9.4-4.1-9.4-9.4V66.5c0-5.3,4.1-9.4,9.4-9.4H232c5.3,0,9.4,4.1,9.4,9.4v37.6
					c0,5.3-4.1,9.4-9.4,9.4H160.5z"/>
				<title>barcode</title>
				<path fill="#0050BF" d="M160.6,113.5c-5.3,0-9.4-4.1-9.4-9.4V66.4c0-5.3,4.1-9.4,9.4-9.4h71.5c5.3,0,9.4,4.1,9.4,9.4v37.6
					c0,5.3-4.1,9.4-9.4,9.4H160.6z M160.6,60.8c-3,0-5.6,2.6-5.6,5.6v37.6c0,3,2.6,5.6,5.6,5.6h71.5c3,0,5.6-2.6,5.6-5.6V66.4
					c0-3-2.6-5.6-5.6-5.6H160.6z"/>
				<path fill="#0050BF" d="M171.9,99.5c-1.1,0-1.9-0.8-1.9-1.9V73.2c0-1.1,0.8-1.9,1.9-1.9c1.1,0,1.9,0.8,1.9,1.9v24.5
					C173.8,98.4,173.1,99.5,171.9,99.5z"/>
				<path fill="#0050BF" d="M220.9,99.5c-1.1,0-1.9-0.8-1.9-1.9V73.2c0-1.1,0.8-1.9,1.9-1.9s1.9,0.8,1.9,1.9v24.5
					C222.7,98.4,222,99.5,220.9,99.5z"/>
				<path fill="#0050BF" d="M179.5,90.1c-1.1,0-1.9-1.1-1.9-1.9V73.2c0-1.1,0.8-1.9,1.9-1.9c1.1,0,1.9,0.8,1.9,1.9v15.1
					C181.3,89,180.6,90.1,179.5,90.1z"/>
				<path fill="#0050BF" d="M198.3,90.1c-1.1,0-1.9-0.8-1.9-1.9V73.2c0-1.1,0.8-1.9,1.9-1.9s1.9,0.8,1.9,1.9v15.1
					C200.2,89,199.4,90.1,198.3,90.1z"/>
				<path fill="#0050BF" d="M205.8,90.1c-1.1,0-1.9-0.8-1.9-1.9V73.2c0-1.1,0.8-1.9,1.9-1.9s1.9,0.8,1.9,1.9v15.1
					C207.7,89,206.9,90.1,205.8,90.1z"/>
				<path fill="#0050BF" d="M187,90.1c-1.1,0-1.9-1.1-1.9-1.9V73.2c0-1.1,0.8-1.9,1.9-1.9c1.1,0,1.9,0.8,1.9,1.9v15.1
					C188.9,89,188.1,90.1,187,90.1z"/>
				<path fill="#0050BF" d="M213.3,90.1c-1.1,0-1.9-0.8-1.9-1.9V73.2c0-1.1,0.8-1.9,1.9-1.9s1.9,0.8,1.9,1.9v15.1
					C215.2,89,214.5,90.1,213.3,90.1z"/>
				<path fill="#0050BF" d="M179.5,99.5c-1.1,0-1.9-0.8-1.9-1.9v-1.9c0-1.1,0.8-1.9,1.9-1.9c1.1,0,1.9,0.8,1.9,1.9v1.9
					C181.3,98.4,180.6,99.5,179.5,99.5z"/>
				<path fill="#0050BF" d="M187,99.5c-1.1,0-1.9-0.8-1.9-1.9v-1.9c0-1.1,0.8-1.9,1.9-1.9c1.1,0,1.9,0.8,1.9,1.9v1.9
					C188.9,98.4,188.1,99.5,187,99.5z"/>
				<path fill="#0050BF" d="M198.3,99.5c-1.1,0-1.9-0.8-1.9-1.9v-1.9c0-1.1,0.8-1.9,1.9-1.9s1.9,0.8,1.9,1.9v1.9
					C200.2,98.4,199.4,99.5,198.3,99.5z"/>
				<path fill="#0050BF" d="M205.8,99.5c-1.1,0-1.9-0.8-1.9-1.9v-1.9c0-1.1,0.8-1.9,1.9-1.9s1.9,0.8,1.9,1.9v1.9
					C207.7,98.4,206.9,99.5,205.8,99.5z"/>
				<path fill="#0050BF" d="M213.3,99.5c-1.1,0-1.9-0.8-1.9-1.9v-1.9c0-1.1,0.8-1.9,1.9-1.9s1.9,0.8,1.9,1.9v1.9
					C215.2,98.4,214.5,99.5,213.3,99.5z"/>
			</g>
		</g>
	</g>
</g>
</svg>
